# xmcd
#
# Track frame offsets: 
#        150
#        18256
#        35543
#        55635
#        80733
#        105306
#        121406
#        141999
#        162773
#        179421
#        214457
#        234579
#        251321
#        274622
#        293201
#
# Disc length: 4377 seconds
#
# Revision: 0
# Processed by: cddbd v1.5.2PL0 Copyright (c) Steve Scherf et al.
# Submitted via: ExactAudioCopy v0.95b3
#
DISCID=d011170f
DTITLE=Jethro Tull  - Catfish Rising  FLAC
DYEAR=1900
DGENRE=
TTITLE0=This Is Not Love
TTITLE1=Occassional Demons
TTITLE2=Roll Yer Own
TTITLE3=Rocks On The Road
TTITLE4=Sparrow On The Schoolyard Wall
TTITLE5=Thinking Round Corners
TTITLE6=Still Loving You Tonight
TTITLE7=Doctor To My Disease
TTITLE8=Like A Tall Thin Girl
TTITLE9=White Innocence
TTITLE10=Sleeping With The Dog
TTITLE11=Gold Tipped Boots, Black Jacket And Tie
TTITLE12=When Jesus CameTo Play
TTITLE13=Night In The Wilderness
TTITLE14=Jump Start
EXTD=
EXTT0=
EXTT1=
EXTT2=
EXTT3=
EXTT4=
EXTT5=
EXTT6=
EXTT7=
EXTT8=
EXTT9=
EXTT10=
EXTT11=
EXTT12=
EXTT13=
EXTT14=
PLAYORDER=
